<svg width="480" height="480" viewBox="0 0 480 480" fill="none" xmlns="http://www.w3.org/2000/svg">
<path d="M152 184H136V288H152V184Z" fill="white"/>
<path d="M344 192H328V296H344V192Z" fill="white"/>
<path d="M479.44 5.208C479.376 5.032 479.32 4.864 479.24 4.688C478.872 3.88 478.376 3.136 477.76 2.488C477.64 2.36 477.504 2.264 477.376 2.152C477.104 1.904 476.856 1.632 476.544 1.416C476.176 1.16 475.768 0.984 475.368 0.8C475.24 0.744 475.136 0.664 475.008 0.608C474.128 0.248 473.208 0.088 472.264 0.056C472.168 0.048 472.096 0 472 0H8C7.904 0 7.816 0.056 7.72 0.056C6.792 0.088 5.872 0.256 5 0.608C4.872 0.656 4.76 0.736 4.632 0.8C4.232 0.984 3.832 1.16 3.464 1.416C3.152 1.632 2.904 1.904 2.632 2.152C2.496 2.272 2.36 2.368 2.24 2.488C1.624 3.144 1.128 3.88 0.76 4.688C0.68 4.864 0.632 5.032 0.56 5.208C0.232 6.096 0 7.024 0 8V472C0 472.976 0.232 473.904 0.56 474.792C0.632 474.968 0.68 475.136 0.76 475.312C1.128 476.12 1.624 476.864 2.24 477.512C2.36 477.64 2.496 477.736 2.624 477.856C2.896 478.104 3.144 478.376 3.456 478.592C3.744 478.792 4.08 478.888 4.384 479.048C4.656 479.192 4.912 479.336 5.208 479.448C6.112 479.776 7.048 480 8 480H472C472.952 480 473.888 479.776 474.784 479.44C475.08 479.328 475.328 479.184 475.608 479.04C475.92 478.88 476.248 478.784 476.536 478.584C476.848 478.368 477.096 478.096 477.368 477.848C477.496 477.728 477.632 477.632 477.752 477.504C478.376 476.856 478.864 476.112 479.232 475.304C479.312 475.136 479.36 474.96 479.432 474.784C479.768 473.904 480 472.976 480 472V8C480 7.024 479.768 6.096 479.44 5.208ZM16 19.608L168 77.512V402.488L16 460.392V19.608ZM51.472 464L178.848 415.48C181.952 414.296 184 411.32 184 408V72C184 68.68 181.952 65.704 178.848 64.52L51.472 16H428.528L301.152 64.52C298.048 65.704 296 68.68 296 72V408C296 411.32 298.048 414.296 301.152 415.48L428.528 464H51.472ZM464 460.392L312 402.488V77.512L464 19.608V460.392Z" fill="white"/>
<path d="M240 200C217.944 200 200 217.944 200 240C200 252.504 206.032 264.328 216 271.832V288V320C216 324.416 219.584 328 224 328H232V336H248V328H256C260.416 328 264 324.416 264 320V288V271.832C273.968 264.32 280 252.504 280 240C280 217.944 262.056 200 240 200ZM248 312H232V296H248V312ZM251.976 260.648C249.512 262.08 248 264.712 248 267.56V280H232V267.56C232 264.712 230.488 262.08 228.024 260.648C220.496 256.264 216 248.544 216 240C216 226.768 226.768 216 240 216C253.232 216 264 226.768 264 240C264 248.544 259.504 256.264 251.976 260.648Z" fill="white"/>
<path d="M248 168H232V184H248V168Z" fill="white"/>
<path d="M282.32 180.702L271.006 192.015L282.32 203.329L293.634 192.015L282.32 180.702Z" fill="white"/>
<path d="M199.991 180.686L188.678 191.999L199.991 203.313L211.305 191.999L199.991 180.686Z" fill="white"/>
</svg>
